<svg width="214" height="217" viewBox="0 0 214 217" fill="none" xmlns="http://www.w3.org/2000/svg">
<g filter="url(#filter0_dd_164_9671)">
<path d="M109.508 68.7488C109.62 68.7488 109.792 68.7621 110.026 68.7886C110.265 68.8098 110.535 68.8682 110.838 68.9637C111.14 69.0592 111.448 69.2131 111.761 69.4253C112.074 69.6376 112.363 69.9347 112.628 70.3167C112.602 70.3327 112.501 70.4043 112.326 70.5316C112.156 70.659 111.963 70.8447 111.745 71.0888C111.527 71.3275 111.336 71.6326 111.172 72.0041C111.013 72.3702 110.933 72.8079 110.933 73.3173C110.933 73.9009 111.034 74.3944 111.236 74.7977C111.443 75.2009 111.681 75.5272 111.952 75.7766C112.228 76.026 112.472 76.209 112.684 76.3258C112.902 76.4372 113.018 76.4956 113.034 76.5009C113.029 76.5221 112.989 76.6415 112.915 76.859C112.841 77.0713 112.724 77.3472 112.565 77.6868C112.411 78.021 112.209 78.3712 111.96 78.7374C111.732 79.061 111.496 79.3714 111.252 79.6686C111.013 79.9657 110.75 80.2071 110.464 80.3928C110.182 80.5838 109.864 80.6793 109.508 80.6793C109.238 80.6793 109.007 80.6475 108.816 80.5838C108.625 80.5202 108.442 80.4459 108.267 80.361C108.097 80.2814 107.909 80.2098 107.702 80.1461C107.495 80.0824 107.238 80.0506 106.93 80.0506C106.527 80.0506 106.19 80.1036 105.919 80.2098C105.654 80.3212 105.402 80.43 105.163 80.5361C104.924 80.6422 104.643 80.6953 104.319 80.6953C103.826 80.6953 103.391 80.4989 103.014 80.1063C102.643 79.7137 102.261 79.2441 101.868 78.6976C101.565 78.2625 101.29 77.7611 101.04 77.1933C100.791 76.6256 100.592 76.0233 100.443 75.3866C100.295 74.7499 100.22 74.1132 100.22 73.4765C100.22 72.4577 100.414 71.6008 100.801 70.9057C101.189 70.2106 101.685 69.6853 102.29 69.3298C102.895 68.9743 103.523 68.7966 104.176 68.7966C104.521 68.7966 104.845 68.8523 105.147 68.9637C105.455 69.0751 105.741 69.1892 106.007 69.306C106.272 69.4174 106.513 69.4731 106.731 69.4731C106.938 69.4731 107.182 69.4147 107.463 69.298C107.744 69.176 108.055 69.0539 108.394 68.9319C108.739 68.8098 109.111 68.7488 109.508 68.7488ZM108.951 67.4595C108.686 67.7831 108.352 68.0511 107.949 68.2633C107.551 68.4756 107.174 68.5817 106.818 68.5817C106.744 68.5817 106.672 68.5737 106.603 68.5578C106.598 68.5366 106.59 68.4994 106.58 68.4464C106.574 68.3933 106.572 68.335 106.572 68.2713C106.572 67.868 106.659 67.4754 106.834 67.0934C107.009 66.7113 107.211 66.393 107.439 66.1383C107.72 65.804 108.076 65.5254 108.506 65.3026C108.941 65.0797 109.357 64.9604 109.755 64.9444C109.771 65.0346 109.779 65.1381 109.779 65.2548C109.779 65.6634 109.702 66.0613 109.548 66.4487C109.394 66.8307 109.195 67.1676 108.951 67.4595Z" fill="white"/>
</g>
<defs>
<filter id="filter0_dd_164_9671" x="0.220367" y="0.944336" width="212.814" height="215.751" filterUnits="userSpaceOnUse" color-interpolation-filters="sRGB">
<feFlood flood-opacity="0" result="BackgroundImageFix"/>
<feColorMatrix in="SourceAlpha" type="matrix" values="0 0 0 0 0 0 0 0 0 0 0 0 0 0 0 0 0 0 127 0" result="hardAlpha"/>
<feOffset dy="36"/>
<feGaussianBlur stdDeviation="50"/>
<feComposite in2="hardAlpha" operator="out"/>
<feColorMatrix type="matrix" values="0 0 0 0 0 0 0 0 0 0 0 0 0 0 0 0 0 0 0.7 0"/>
<feBlend mode="normal" in2="BackgroundImageFix" result="effect1_dropShadow_164_9671"/>
<feColorMatrix in="SourceAlpha" type="matrix" values="0 0 0 0 0 0 0 0 0 0 0 0 0 0 0 0 0 0 127 0" result="hardAlpha"/>
<feOffset dy="1"/>
<feGaussianBlur stdDeviation="2"/>
<feComposite in2="hardAlpha" operator="out"/>
<feColorMatrix type="matrix" values="0 0 0 0 0 0 0 0 0 0 0 0 0 0 0 0 0 0 0.2 0"/>
<feBlend mode="normal" in2="effect1_dropShadow_164_9671" result="effect2_dropShadow_164_9671"/>
<feBlend mode="normal" in="SourceGraphic" in2="effect2_dropShadow_164_9671" result="shape"/>
</filter>
</defs>
</svg>
