<svg xmlns="http://www.w3.org/2000/svg" version="1.1" xmlns:xlink="http://www.w3.org/1999/xlink" width="1000" height="1000"><g clip-path="url(#SvgjsClipPath1126)"><rect width="1000" height="1000" fill="#ffffff"></rect><g transform="matrix(0.5555555555555556,0,0,0.5555555555555556,50,50)"><svg xmlns="http://www.w3.org/2000/svg" version="1.1" xmlns:xlink="http://www.w3.org/1999/xlink" width="1620" height="1620"><svg width="1620" height="1620" viewBox="0 0 1620 1620" fill="none" xmlns="http://www.w3.org/2000/svg">
<path d="M0 0H1620V1620H0V0Z" fill="#F5F5F6"></path>
<path d="M492 223H1125L1142 226L1156 231L1168 238L1178 246L1188 257L1196 272L1199 282L1200 296L1198 306L1192 315L1185 321L1176 325L1122 326L1129 353L1132 372L1133 382V415L1130 439L1124 466L1114 496L1104 519L1096 536L1082 560L1069 580L1056 598L1045 612L1034 625L1025 635L1018 643L1007 655L962 700L954 707L946 715L938 722L924 735L916 742L902 754L890 765L879 774L867 786L862 792L859 799V811L863 820L870 828L881 838L890 845L904 856L920 869L946 891L960 903L974 916L982 923L998 938L1012 952L1020 959L1036 976L1043 983L1050 991L1061 1004L1071 1017L1083 1034L1095 1053L1107 1075L1117 1097L1126 1122L1133 1148L1137 1172L1139 1194V1217L1137 1238L1133 1260L1126 1285L1123 1293H1175L1185 1297L1193 1303L1198 1310L1201 1322V1332L1198 1346L1193 1358L1185 1369L1174 1380L1163 1387L1153 1392L1140 1396L1129 1398H488L474 1395L461 1390L449 1383L440 1376V1374H438L430 1364L424 1353L420 1342L419 1337V1319L423 1309L430 1301L435 1297L442 1294L447 1293H499L493 1272L487 1241L485 1226L484 1211V1190L486 1167L490 1145L496 1122L506 1095L516 1073L529 1050L539 1034L552 1016L565 1000L574 989L585 977L592 969L635 926L643 919L657 906L665 899L680 886L706 864L717 855L733 842L746 832L754 824L759 816L760 813V798L755 788L738 771L727 762L717 753L706 744L691 731L677 719L664 707L656 700L641 686L599 644L592 636L580 622L567 605L555 589L541 567L527 543L515 519L505 494L499 476L493 452L489 428L488 417V387L491 361L496 337L500 325H442C442 325 436 323.5 433 322C430 320.5 426.5 317.5 425 316C423.5 314.5 419 309.5 418 303C417 296.5 418 287 418 287C418 287 420 277 422 273C424 269 425.5 263 428 261C430.5 259 432 254 436 251C440 248 444 243 444 243L457 234L472 227L484 224L492 223Z" fill="black"></path>
<path d="M613 383L629 384L694 398L730 404L763 408L793 410H831L861 408L896 404L931 398L969 390L993 384L1008 383L1022 386L1036 393L1046 402L1052 411L1056 423L1057 430V444L1054 461L1048 482L1037 510L1026 533L1013 556L1002 574L989 593L976 611L963 627L955 637L943 651L932 663L925 671L913 684L881 716L870 725L855 736L840 744L824 749L819 750H796L780 746L763 738L749 728L735 716L705 686L698 678L686 665L677 654L665 640L654 626L644 613L632 596L618 575L603 550L589 523L579 500L569 470L565 451L564 442V433L566 421L571 409L579 399L591 390L603 385L613 383Z" fill="#F5F5F6"></path>
<path d="M833 866H848L864 874L878 885L889 895L897 902L937 942L944 950L952 958L961 969L972 981L983 995L995 1010L1007 1027L1017 1042L1030 1064L1041 1085L1052 1112L1059 1135L1064 1157L1067 1183V1209L1064 1230L1059 1249H1057L1048 1236L1039 1225L1031 1217V1215H1029L1015 1201L1004 1192L986 1178L967 1165L946 1152L928 1142L905 1130L877 1117L848 1104L837 1098L827 1089L821 1080L818 1069L816 1051L815 1026V922L816 896L818 883L823 873L829 868L833 866Z" fill="#F5F5F6"></path>
<path d="M775 865H785L793 868L801 877L804 890L805 902V1024L803 1057L800 1072L796 1082L787 1092L771 1101L733 1119L709 1131L686 1144L666 1156L648 1168L634 1178L621 1188L607 1200L597 1209L585 1221L576 1232L566 1245L563 1250H561L557 1233L555 1220L554 1206V1193L556 1169L561 1143L569 1116L580 1088L592 1064L608 1037L621 1018L635 999L644 988L655 975L664 964L679 948L686 940L693 933L700 925L731 894L739 887L752 876L765 868L775 865Z" fill="#F5F5F6"></path>
<path d="M1201 1323L1205 1325L1210 1336L1211 1339V1358L1205 1374L1195 1388L1190 1393H1188V1395L1173 1405L1157 1412L1143 1416L1130 1418L1073 1419L691 1418H578L514 1417L497 1414L482 1409L469 1402L456 1392L452 1388V1385L457 1387L470 1393L481 1396L488 1397H1129L1147 1393L1160 1388L1171 1381L1181 1372L1189 1363L1196 1349L1199 1339L1201 1323Z" fill="#B1B1B0"></path>
<path d="M1199 284H1201L1206 295L1208 303V314L1204 325L1195 334L1185 339L1176 341L1155 343L1146 346L1141 351L1139 356V376L1141 400V436L1136 468L1129 494L1122 514L1115 530L1104 553L1093 572L1084 586L1075 599L1063 616L1054 627L1046 637L1035 649L1028 657L1014 672L1007 680L1003 684H1001V686H999V688H997V690H995V692L987 699L974 712L966 719L959 726L951 733L935 748L927 755H925L924 758L916 765L896 783L880 799L873 810L870 819L868 826L863 822L859 814L858 811V799L863 789L870 781L878 774L888 765L899 756L913 743L921 736L941 718L954 706L971 690L1014 647L1021 639L1031 628L1040 617L1053 601L1066 583L1076 568L1088 548L1100 526L1111 501L1120 476L1126 454L1130 433L1132 415V382L1129 358L1123 333L1122 326L1130 325L1176 324L1188 318L1195 310L1198 303L1199 290V284Z" fill="#B1B1B0"></path>
<path d="M613 383L629 384L694 398L730 404L763 408L793 410H831L861 408L896 404L931 398L969 390L993 384L1008 383L1022 386L1036 393L1046 402L1051 409V411L1046 409L1035 403L1026 400L1018 399H1006L982 403L940 412L909 417L886 420L854 422H798L769 420L737 416L692 408L657 401L636 398H621L605 402L592 409L580 420L574 431L571 445C571.558 458.196 571.861 465.567 569 470L565 451L564 442V433L566 421L571 409L579 399L591 390L603 385L613 383Z" fill="#2E2E2E"></path>
<path d="M775 865H785L793 868L799 875L797 876H786L772 880L762 886L751 894L747 898H745V900L737 907H735L733 911L728 915L726 918H724V920L718 925L714 930H712L710 934L705 938L699 945H697L695 949L691 954L686 959L671 975L663 985L653 998L644 1009L622 1042L609 1064L602 1076L591 1099L579 1130L573 1150L567 1179L564 1207V1223L567 1244L563 1250H561L557 1233L555 1220L554 1206V1193L556 1169L561 1143L569 1116L580 1088L592 1064L608 1037L621 1018L635 999L644 988L655 975L664 964L679 948L686 940L693 933L700 925L731 894L739 887L752 876L765 868L775 865Z" fill="#B1B1B0"></path>
<path d="M1115 1090L1119 1095L1128 1114L1137 1139L1143 1160L1148 1187L1150 1204V1243L1147 1267L1142 1291L1149 1292V1293H1123L1124 1288L1131 1265L1135 1245L1137 1230L1138 1217V1194L1135 1165L1130 1140L1123 1116L1114 1092L1115 1090Z" fill="#B1B1B0"></path>
<path d="M833 866H848L864 874L878 885L887 893L885 895L876 889L866 883L858 880L847 879L839 881L834 884H831V886H829L827 890L821 898L818 899L817 895V887L821 876L827 869L833 866Z" fill="#B1B1B0"></path>
<path d="M443 325H500L496 341H486L468 339L453 335L444 330L441 326L443 325Z" fill="#B1B1B0"></path>
</svg></svg></g></g><defs><clipPath id="SvgjsClipPath1126"><rect width="1000" height="1000" x="0" y="0" rx="500" ry="500"></rect></clipPath></defs></svg>