<svg width="2048" height="2048" viewBox="0 0 2048 2048" fill="none" xmlns="http://www.w3.org/2000/svg">
<g clip-path="url(#clip0_4124_69)">
<path d="M0 0H2048V2048H0V0Z" fill="#F5F5F6"/>
<path d="M699 505H1332L1349 508L1363 513L1375 520L1385 528L1395 539L1403 554L1406 564L1407 578L1405 588L1399 597L1392 603L1383 607L1329 608L1336 635L1339 654L1340 664V697L1337 721L1331 748L1321 778L1311 801L1303 818L1289 842L1276 862L1263 880L1252 894L1241 907L1232 917L1225 925L1214 937L1169 982L1161 989L1153 997L1145 1004L1131 1017L1123 1024L1109 1036L1097 1047L1086 1056L1074 1068L1069 1074L1066 1081V1093L1070 1102L1077 1110L1088 1120L1097 1127L1111 1138L1127 1151L1153 1173L1167 1185L1181 1198L1189 1205L1205 1220L1219 1234L1227 1241L1243 1258L1250 1265L1257 1273L1268 1286L1278 1299L1290 1316L1302 1335L1314 1357L1324 1379L1333 1404L1340 1430L1344 1454L1346 1476V1499L1344 1520L1340 1542L1333 1567L1330 1575H1382L1392 1579L1400 1585L1405 1592L1408 1604V1614L1405 1628L1400 1640L1392 1651L1381 1662L1370 1669L1360 1674L1347 1678L1336 1680H695L681 1677L668 1672L656 1665L647 1658V1656H645L637 1646L631 1635L627 1624L626 1619V1601L630 1591L637 1583L642 1579L649 1576L654 1575H706L700 1554L694 1523L692 1508L691 1493V1472L693 1449L697 1427L703 1404L713 1377L723 1355L736 1332L746 1316L759 1298L772 1282L781 1271L792 1259L799 1251L842 1208L850 1201L864 1188L872 1181L887 1168L913 1146L924 1137L940 1124L953 1114L961 1106L966 1098L967 1095V1080L962 1070L945 1053L934 1044L924 1035L913 1026L898 1013L884 1001L871 989L863 982L848 968L806 926L799 918L787 904L774 887L762 871L748 849L734 825L722 801L712 776L706 758L700 734L696 710L695 699V669L698 643L703 619L707 607H649C649 607 643 605.5 640 604C637 602.5 633.5 599.5 632 598C630.5 596.5 626 591.5 625 585C624 578.5 625 569 625 569C625 569 627 559 629 555C631 551 632.5 545 635 543C637.5 541 639 536 643 533C647 530 651 525 651 525L664 516L679 509L691 506L699 505Z" fill="black"/>
<path d="M820 665L836 666L901 680L937 686L970 690L1000 692H1038L1068 690L1103 686L1138 680L1176 672L1200 666L1215 665L1229 668L1243 675L1253 684L1259 693L1263 705L1264 712V726L1261 743L1255 764L1244 792L1233 815L1220 838L1209 856L1196 875L1183 893L1170 909L1162 919L1150 933L1139 945L1132 953L1120 966L1088 998L1077 1007L1062 1018L1047 1026L1031 1031L1026 1032H1003L987 1028L970 1020L956 1010L942 998L912 968L905 960L893 947L884 936L872 922L861 908L851 895L839 878L825 857L810 832L796 805L786 782L776 752L772 733L771 724V715L773 703L778 691L786 681L798 672L810 667L820 665Z" fill="#F5F5F6"/>
<path d="M1040 1148H1055L1071 1156L1085 1167L1096 1177L1104 1184L1144 1224L1151 1232L1159 1240L1168 1251L1179 1263L1190 1277L1202 1292L1214 1309L1224 1324L1237 1346L1248 1367L1259 1394L1266 1417L1271 1439L1274 1465V1491L1271 1512L1266 1531H1264L1255 1518L1246 1507L1238 1499V1497H1236L1222 1483L1211 1474L1193 1460L1174 1447L1153 1434L1135 1424L1112 1412L1084 1399L1055 1386L1044 1380L1034 1371L1028 1362L1025 1351L1023 1333L1022 1308V1204L1023 1178L1025 1165L1030 1155L1036 1150L1040 1148Z" fill="#F5F5F6"/>
<path d="M982 1147H992L1000 1150L1008 1159L1011 1172L1012 1184V1306L1010 1339L1007 1354L1003 1364L994 1374L978 1383L940 1401L916 1413L893 1426L873 1438L855 1450L841 1460L828 1470L814 1482L804 1491L792 1503L783 1514L773 1527L770 1532H768L764 1515L762 1502L761 1488V1475L763 1451L768 1425L776 1398L787 1370L799 1346L815 1319L828 1300L842 1281L851 1270L862 1257L871 1246L886 1230L893 1222L900 1215L907 1207L938 1176L946 1169L959 1158L972 1150L982 1147Z" fill="#F5F5F6"/>
<path d="M1408 1605L1412 1607L1417 1618L1418 1621V1640L1412 1656L1402 1670L1397 1675H1395V1677L1380 1687L1364 1694L1350 1698L1337 1700L1280 1701L898 1700H785L721 1699L704 1696L689 1691L676 1684L663 1674L659 1670V1667L664 1669L677 1675L688 1678L695 1679H1336L1354 1675L1367 1670L1378 1663L1388 1654L1396 1645L1403 1631L1406 1621L1408 1605Z" fill="#B1B1B0"/>
<path d="M1406 566H1408L1413 577L1415 585V596L1411 607L1402 616L1392 621L1383 623L1362 625L1353 628L1348 633L1346 638V658L1348 682V718L1343 750L1336 776L1329 796L1322 812L1311 835L1300 854L1291 868L1282 881L1270 898L1261 909L1253 919L1242 931L1235 939L1221 954L1214 962L1210 966H1208V968H1206V970H1204V972H1202V974L1194 981L1181 994L1173 1001L1166 1008L1158 1015L1142 1030L1134 1037H1132L1131 1040L1123 1047L1103 1065L1087 1081L1080 1092L1077 1101L1075 1108L1070 1104L1066 1096L1065 1093V1081L1070 1071L1077 1063L1085 1056L1095 1047L1106 1038L1120 1025L1128 1018L1148 1000L1161 988L1178 972L1221 929L1228 921L1238 910L1247 899L1260 883L1273 865L1283 850L1295 830L1307 808L1318 783L1327 758L1333 736L1337 715L1339 697V664L1336 640L1330 615L1329 608L1337 607L1383 606L1395 600L1402 592L1405 585L1406 572V566Z" fill="#B1B1B0"/>
<path d="M820 665L836 666L901 680L937 686L970 690L1000 692H1038L1068 690L1103 686L1138 680L1176 672L1200 666L1215 665L1229 668L1243 675L1253 684L1258 691V693L1253 691L1242 685L1233 682L1225 681H1213L1189 685L1147 694L1116 699L1093 702L1061 704H1005L976 702L944 698L899 690L864 683L843 680H828L812 684L799 691L787 702L781 713L778 727C778.558 740.196 778.861 747.567 776 752L772 733L771 724V715L773 703L778 691L786 681L798 672L810 667L820 665Z" fill="#2E2E2E"/>
<path d="M982 1147H992L1000 1150L1006 1157L1004 1158H993L979 1162L969 1168L958 1176L954 1180H952V1182L944 1189H942L940 1193L935 1197L933 1200H931V1202L925 1207L921 1212H919L917 1216L912 1220L906 1227H904L902 1231L898 1236L893 1241L878 1257L870 1267L860 1280L851 1291L829 1324L816 1346L809 1358L798 1381L786 1412L780 1432L774 1461L771 1489V1505L774 1526L770 1532H768L764 1515L762 1502L761 1488V1475L763 1451L768 1425L776 1398L787 1370L799 1346L815 1319L828 1300L842 1281L851 1270L862 1257L871 1246L886 1230L893 1222L900 1215L907 1207L938 1176L946 1169L959 1158L972 1150L982 1147Z" fill="#B1B1B0"/>
<path d="M1322 1372L1326 1377L1335 1396L1344 1421L1350 1442L1355 1469L1357 1486V1525L1354 1549L1349 1573L1356 1574V1575H1330L1331 1570L1338 1547L1342 1527L1344 1512L1345 1499V1476L1342 1447L1337 1422L1330 1398L1321 1374L1322 1372Z" fill="#B1B1B0"/>
<path d="M1040 1148H1055L1071 1156L1085 1167L1094 1175L1092 1177L1083 1171L1073 1165L1065 1162L1054 1161L1046 1163L1041 1166H1038V1168H1036L1034 1172L1028 1180L1025 1181L1024 1177V1169L1028 1158L1034 1151L1040 1148Z" fill="#B1B1B0"/>
<path d="M650 607H707L703 623H693L675 621L660 617L651 612L648 608L650 607Z" fill="#B1B1B0"/>
</g>
<defs>
<clipPath id="clip0_4124_69">
<rect width="2048" height="2048" fill="white"/>
</clipPath>
</defs>
</svg>
